<svg id="Livello_1" data-name="Livello 1" xmlns="http://www.w3.org/2000/svg" viewBox="0 0 163.46 140.5"><defs><style>.cls-1,.cls-4{fill:#fff;}.cls-2{fill:#232324;}.cls-3{fill:none;stroke:#70bd89;stroke-miterlimit:10;stroke-width:10px;}.cls-4{font-size:34.15px;font-family:CeraCY-Regular;}</style></defs><path class="cls-1" d="M175.06,213.23a22.17,22.17,0,0,1-19.69-11.09l6.9-4.87q4.77,7.5,12.79,7.5c8.32,0,14.41-6.22,14.41-14.74s-6.09-14.61-14.41-14.61q-8,0-12.79,7.5l-6.9-4.87c3.86-7,11.17-11.09,19.76-11.09,13.05-.27,24,10.35,23.74,23.13C199.08,202.88,188.05,213.5,175.06,213.23Z" transform="translate(-93.94 -110.57)"/><path class="cls-2" d="M150.24,147.6c10.36,0,19.23,5.06,24.12,13.6l-8.45,6q-5.85-9.19-15.67-9.2c-10.19,0-17.65,7.63-17.65,18.07s7.46,17.9,17.65,17.9q9.82,0,15.67-9.2l8.45,6c-4.72,8.54-13.67,13.59-24.2,13.59-16,.33-29.42-12.68-29.09-28.34C120.82,160.28,134.33,147.27,150.24,147.6Z" transform="translate(-93.94 -110.57)"/><polyline class="cls-3" points="47.46 9.81 5 9.81 5 135.5 47.46 135.5"/><polyline class="cls-3" points="90 135.5 130.94 135.5 130.94 9.81 90 9.81"/><text class="cls-4" transform="translate(144.57 28.34)">2</text><path class="cls-1" d="M169.46,188l-6.9-4.87q-4.77,7.5-12.78,7.51c-8.32,0-14.41-6.09-14.41-14.61s6.09-14.75,14.41-14.75a13.9,13.9,0,0,1,10.83,4.9,27,27,0,0,1,8.23-3.28,22.19,22.19,0,0,0-19.06-10.08c-13-.27-24,10.35-23.81,23.14-.28,12.78,10.68,23.4,23.74,23.13C158.3,199.08,165.61,195,169.46,188Z" transform="translate(-93.94 -110.57)"/></svg>